<?xml version="1.0" encoding="UTF-8"?> <svg xmlns="http://www.w3.org/2000/svg" width="176" height="44" viewBox="0 0 176 44"><g><g><g><g><g><path fill="#fff" d="M57.636 15.918c-.903.885-2.204 1.327-3.91 1.327h-4.808V7.397h4.808c1.706 0 3.007.443 3.91 1.328.9.884 1.353 2.084 1.353 3.595 0 1.514-.453 2.713-1.353 3.598zm4.475-10.492c-2.015-1.86-4.882-2.79-8.6-2.79H42.926v29.657h5.992V22.005h4.593c2.12 0 3.971-.3 5.557-.898 1.583-.601 2.79-1.407 3.619-2.422 1.631-1.938 2.444-4.166 2.444-6.687 0-2.522-1.007-4.71-3.02-6.572z"></path></g><g><path fill="#fff" d="M77.291 27.577c-1.67 0-3.086-.609-4.247-1.826s-1.742-2.961-1.742-5.227c0-2.266.58-4.007 1.742-5.227 1.16-1.217 2.585-1.826 4.27-1.826 1.686 0 3.123.609 4.312 1.826 1.189 1.22 1.785 2.953 1.785 5.206 0 2.25-.601 3.995-1.806 5.225-1.204 1.233-2.641 1.849-4.314 1.849zm-8.623 1.7c2.294 2.238 5.168 3.356 8.623 3.356 3.458 0 6.353-1.118 8.69-3.356 2.337-2.237 3.506-5.17 3.506-8.797 0-3.623-1.161-6.541-3.483-8.75-2.325-2.21-5.207-3.315-8.649-3.315-3.44 0-6.324 1.105-8.646 3.314-2.322 2.21-3.483 5.128-3.483 8.751 0 3.627 1.146 6.56 3.442 8.797z"></path></g><g><path fill="#fff" d="M94.328 29.318c-2.153-2.21-3.23-5.14-3.23-8.794 0-3.655 1.077-6.585 3.23-8.795s4.943-3.314 8.37-3.314c2.862 0 5.255.693 7.18 2.082 1.926 1.388 3.215 3.357 3.867 5.905h-6.457c-.764-1.954-2.296-2.931-4.59-2.931-1.729 0-3.08.631-4.058 1.89-.977 1.26-1.466 2.981-1.466 5.163 0 2.181.489 3.902 1.466 5.163.979 1.26 2.33 1.89 4.058 1.89 2.266 0 3.795-.99 4.59-2.974h6.457c-.68 2.465-1.99 4.419-3.93 5.864-1.941 1.444-4.312 2.166-7.117 2.166-3.427 0-6.217-1.105-8.37-3.315z"></path></g><g><path fill="#fff" d="M146.84 31.743L137.32 8.755h6.782l6.127 16.569 6.332-16.569h6.434l-14.326 34.67h-6.81z"></path></g><g><path fill="#fff" d="M175.928 27.055v4.828c-2.628.609-5.28.63-6.41.425-1.356-.246-2.466-.734-3.33-1.468-1.3-1.102-1.949-2.923-1.949-5.462V5.804c0-.667.404-1.266 1.023-1.516l4.946-2v6.444h5.72v4.87h-5.72v11.776c0 .762.184 1.306.552 1.629.228.204.563.342 1.003.419.838.148 2.419.02 4.165-.37"></path></g></g></g><g><path fill="#27e093" d="M30.605 2.636H0v23.672c0 1.53.925 2.903 2.342 3.476l11.656 4.708c.417.169.862.255 1.305.255.442 0 .887-.086 1.304-.255l11.656-4.708a3.746 3.746 0 0 0 2.342-3.476V2.636zm-6.089 6.089V24.73l-9.213 3.723-9.214-3.723V8.725h18.428"></path></g><g><path fill="#fff" d="M127.987 19.148l8.815-10.393h-7.541l-6.412 8.534h-1.493V.85h-5.992v31.441h5.992V21.964h1.64l7.226 9.671c.31.415.795.657 1.312.657h6.713z"></path></g></g></g></svg> 